<svg xmlns="http://www.w3.org/2000/svg" width="226.58" height="34.97" viewBox="0 0 226.58 34.97">
  <g id="b" transform="translate(0 -0.02)">
    <g id="c">
      <path id="Path_3" data-name="Path 3" d="M219.64,1.72a3.506,3.506,0,0,0-2.4,1.18,25.631,25.631,0,0,0-1.99,2.3c-.42.52-.85,1.03-1.27,1.55-.61.74-1.21,1.49-1.81,2.24-.8.99-1.59,1.99-2.38,2.99-.95,1.21-1.87,2.42-2.89,3.57a32.651,32.651,0,0,1-2.44,2.55c-.09-1.89-.09-3.78-.12-5.67-.02-1.07-.03-2.13-.05-3.2-.01-.62-.03-1.24-.04-1.86-.02-.7-.05-1.39-.13-2.09a12.612,12.612,0,0,0-.28-1.63,9.555,9.555,0,0,0-.39-1.01,3.288,3.288,0,0,0-5.5-1.45,7.577,7.577,0,0,0-1.17,1.36,16.75,16.75,0,0,0-.86,1.69c-.19.4-.42.8-.62,1.19-.38.72-.76,1.45-1.14,2.17a75.5,75.5,0,0,1-5.19,8.82c-.22.26-.44.51-.67.76-.07-1.52-.11-3.04-.14-4.57-.02-1.11-.03-2.21-.04-3.32,0-.7-.02-1.4-.02-2.1a22.491,22.491,0,0,0-.2-2.95,12.972,12.972,0,0,0-.57-2.14A2.9,2.9,0,0,0,186.02.4a2.732,2.732,0,0,0-1.4-.38,3.164,3.164,0,0,0-1.48.38,5.024,5.024,0,0,0-2.01,1.73c-.3.48-.51,1.01-.77,1.51-.36.69-.74,1.38-1.11,2.07-.63,1.18-1.26,2.35-1.89,3.52-.56,1.04-1.14,2.06-1.71,3.09a54.433,54.433,0,0,1-3.56,5.86c-.25.33-.5.65-.77.96-.23-1.82-.41-3.64-.51-5.47-.09-1.63-.17-3.25-.26-4.88-.04-.69-.11-1.38-.16-2.07-.02-.32-.02-.64-.03-.95a10.755,10.755,0,0,0-.14-1.38,4.428,4.428,0,0,0-.64-1.72,4.108,4.108,0,0,0-1.2-1.15,5.1,5.1,0,0,0-1.17-.46,2.839,2.839,0,0,0-1.53,0,3.024,3.024,0,0,0-1.72,1.32c-.55.83-1.08,1.66-1.55,2.54-.24.46-.48.92-.73,1.37-.44.79-.87,1.58-1.3,2.37a67.24,67.24,0,0,1-4.54,7.49,16.969,16.969,0,0,1-1.85,1.94l-.06.04a64.821,64.821,0,0,1-1.77-6.6c-.1-.42-.2-.85-.29-1.27l-.42-1.86a21.515,21.515,0,0,0-.64-2.07A6.428,6.428,0,0,0,150,4.59a2.685,2.685,0,0,0-.6-.7,3.2,3.2,0,0,0-1.37-.76c-.32-.06-.65-.11-.98-.14a5.371,5.371,0,0,0-1.26.16,3.433,3.433,0,0,0-1.36.78,4.121,4.121,0,0,0-.65.67c-.44.54-.86,1.1-1.26,1.66-.31.45-.58.93-.88,1.39-.28.44-.56.87-.84,1.3-.49.76-.97,1.51-1.44,2.27-.66,1.06-1.31,2.12-1.97,3.18-.57.92-1.14,1.85-1.72,2.78-.68,1.08-1.42,2.11-2.19,3.12a17.15,17.15,0,0,1-2.49,2.55c-.31.21-.62.41-.95.59-.12.04-.25.08-.37.11h-.09a12.7,12.7,0,0,1-1.02-1.93,28.285,28.285,0,0,1-1.53-5.58c-.2-1.17-.43-2.35-.6-3.52-.12-.91-.26-1.82-.4-2.73-.04-.32-.07-.64-.12-.96a4.039,4.039,0,0,0-.36-1.15,2.907,2.907,0,0,0-1.88-1.61,3.253,3.253,0,0,0-1.52-.02c-.07.01-.14.03-.2.04a2.363,2.363,0,0,0-1.07.62,4.718,4.718,0,0,0-1.13,1.65c-.57,1.08-1.23,2.13-1.86,3.18a105.2,105.2,0,0,1-6.09,9.52,20.752,20.752,0,0,1-2.94,3.06,10.852,10.852,0,0,1-1.18.71c-.18-.48-.35-.96-.48-1.45l-.48-1.74c-.25-.92-.44-1.85-.66-2.78s-.4-1.87-.6-2.8c-.16-.75-.31-1.49-.47-2.24-.13-.66-.31-1.3-.48-1.95-.13-.49-.21-.98-.36-1.46a3.633,3.633,0,0,0-2.31-2.56,3.353,3.353,0,0,0-3.53.86,4.3,4.3,0,0,0-.75,1.18c-.23.5-.48.98-.73,1.47-.36.7-.69,1.41-1.05,2.1a68.5,68.5,0,0,1-5.27,9.15,12.931,12.931,0,0,1-1.72,1.75,8.238,8.238,0,0,1-.8.5c-.13.04-.26.08-.39.11v-.02a8.644,8.644,0,0,1-.72-1.34,41.481,41.481,0,0,1-1.4-4.48c-.25-.94-.53-1.87-.74-2.82-.24-1.08-.49-2.16-.73-3.24-.11-.48-.21-.96-.3-1.45a9.96,9.96,0,0,0-.5-1.93,3.381,3.381,0,0,0-.38-.79,10.033,10.033,0,0,0-.75-.97,2.023,2.023,0,0,0-1.49-.62,2.191,2.191,0,0,0-1.82,1.04,11.985,11.985,0,0,0-.92,1.43,20.937,20.937,0,0,0-.86,2.01c-.5,1.17-1.02,2.33-1.53,3.49-.71,1.61-1.4,3.24-2.21,4.8a32.627,32.627,0,0,1-2.61,4.51,12.867,12.867,0,0,1-1.54,1.67,7.239,7.239,0,0,1-.71.41c-.04.01-.08.03-.12.04l-.05-.05c-.08-.13-.16-.26-.23-.39a50.88,50.88,0,0,1-1.95-6.77c-.25-1.04-.49-2.09-.74-3.14-.16-.66-.31-1.32-.5-1.98a9.2,9.2,0,0,0-.58-1.42,6.287,6.287,0,0,0-1.13-1.35,1.862,1.862,0,0,0-1.32-.55,1.944,1.944,0,0,0-1.61.93,11.145,11.145,0,0,0-.9,1.37,18.381,18.381,0,0,0-.79,1.89q-1.05,2.37-2.15,4.72c-.53,1.14-1.07,2.27-1.62,3.4s-1.14,2.27-1.79,3.37c-.57.96-1.13,1.93-1.78,2.84a11.409,11.409,0,0,1-1.49,1.54c-.08.05-.15.1-.23.14a2.335,2.335,0,0,1-.25.07c-.09-.16-.17-.32-.25-.48a19.74,19.74,0,0,1-.63-3.15c-.13-.79-.27-1.58-.4-2.38-.24-1.86-.51-3.73-.63-5.6-.09-1.43-.19-2.86-.29-4.29-.05-.76-.07-1.52-.1-2.28a12.551,12.551,0,0,0-.23-1.93,6.3,6.3,0,0,0-.9-1.93,1.674,1.674,0,0,0-2.63-.34,8.274,8.274,0,0,0-1.25,1.26,13.882,13.882,0,0,0-1.07,1.87c-.26.51-.54,1.01-.81,1.51-.47.87-.94,1.74-1.41,2.6a86.5,86.5,0,0,1-6.35,10.42c-.46.57-.94,1.13-1.43,1.67-.23.26-.46.51-.7.76-.24-.87-.43-1.76-.63-2.66-.22-1.03-.41-2.08-.57-3.12q-.645-3.99-1.24-7.99c-.16-1.07-.34-2.13-.56-3.19-.14-.69-.29-1.37-.43-2.06a2.838,2.838,0,0,0-1.18-1.89,2.193,2.193,0,0,0-1.77-.16,2.158,2.158,0,0,0-1.32,1.41c-.13.37-.2.76-.34,1.13-.14.41-.29.82-.43,1.22-.85,2.41-1.78,4.78-2.7,7.17-.21.54-.44,1.08-.66,1.61A37.51,37.51,0,0,1,14.1,28.1a16.694,16.694,0,0,1-2.04,2.32c-.14.09-.28.17-.43.25l-.12.03h-.2c-.02-.03-.03-.06-.05-.09A9.456,9.456,0,0,1,11,29.7c-.07-.99-.02-1.99,0-2.99,0-.71,0-1.41.03-2.12.04-1.57.06-3.14.09-4.72.02-1.44.06-2.88.08-4.32,0-.65.02-1.29.03-1.94.02-1.05.05-2.1.04-3.15a28.19,28.19,0,0,0-.35-3.3,1.245,1.245,0,0,0-.9-.9,1.326,1.326,0,0,0-1.46.59c-.23.34-.46.67-.68,1.01a8.391,8.391,0,0,0-.64,1.4,27.247,27.247,0,0,0-1,3.14c-.28,1.04-.55,2.07-.86,3.1q-.75,2.52-1.48,5.03C2.5,25.09,1.23,29.61,0,34.14H0q2.49-6.03,4.9-12.09,1.02-2.565,2.02-5.15c.14-.36.28-.72.42-1.09.38-.98.71-1.97,1.05-2.96-.04.73-.07,1.45-.1,2.18-.07,1.55-.13,3.09-.19,4.64-.09,2.42-.15,4.85-.2,7.27-.02.87-.07,1.74-.07,2.61A7.193,7.193,0,0,0,8.2,31.6a3.189,3.189,0,0,0,1.29,1.87,3.937,3.937,0,0,0,3.74.06,11.35,11.35,0,0,0,3.24-3.2,36.417,36.417,0,0,0,4.87-9.1c.61-1.5,1.14-3.03,1.7-4.56.38-1.03.72-2.08,1.08-3.11v-.02c.14.74.24,1.49.35,2.24v-.06c.36,2.77.73,5.53,1.11,8.3.24,1.86.49,3.73.83,5.58.14.74.3,1.46.5,2.19a2.572,2.572,0,0,0,1.1,1.57,2.724,2.724,0,0,0,2,.22,6.5,6.5,0,0,0,3-2,36.571,36.571,0,0,0,2.78-3.41,73.964,73.964,0,0,0,5.67-9.85c.37-.72.73-1.44,1.09-2.16.3-.59.59-1.18.89-1.77a2.4,2.4,0,0,0,.11-.23c.02.42.03.84.06,1.27.05.81.11,1.63.16,2.44.08,1.12.12,2.25.26,3.36.17,1.48.35,2.96.52,4.44.16,1.35.39,2.69.59,4.04a10.286,10.286,0,0,0,.52,2.51,4.523,4.523,0,0,0,1.27,2.02,3.652,3.652,0,0,0,2.35.75,4.3,4.3,0,0,0,2.42-.83,13.238,13.238,0,0,0,3.61-4.19,55.672,55.672,0,0,0,2.75-5.1c.78-1.63,1.52-3.28,2.27-4.92q.615-1.35,1.2-2.7c.12.54.23,1.07.35,1.61.19.89.38,1.77.57,2.66.29,1.38.57,2.75.92,4.12a11.893,11.893,0,0,0,1.22,3.54,4.113,4.113,0,0,0,3.33,2.19,6.8,6.8,0,0,0,3.44-1.02,10.847,10.847,0,0,0,2.79-2.74,21.427,21.427,0,0,0,2.18-3.46c.61-1.18,1.19-2.38,1.73-3.59.7-1.62,1.36-3.27,2.02-4.91.05-.13.1-.26.16-.39l.03.12c.2.87.38,1.75.6,2.62.29,1.16.58,2.33.88,3.49.32,1.26.66,2.51,1.1,3.73a20.885,20.885,0,0,0,.82,1.94,5.5,5.5,0,0,0,.75,1.04,4.166,4.166,0,0,0,.94.84,4.11,4.11,0,0,0,.82.39,7.37,7.37,0,0,0,1.32.19,5.65,5.65,0,0,0,1-.1,4.961,4.961,0,0,0,1.07-.28,10.115,10.115,0,0,0,3.47-2.42,18.01,18.01,0,0,0,1.37-1.66c.4-.52.76-1.07,1.12-1.62a43.031,43.031,0,0,0,2.18-3.78c.61-1.18,1.19-2.37,1.77-3.55.25-.5.49-1,.73-1.51.07-.15.14-.29.21-.44.09.39.19.78.26,1.17.16.8.31,1.59.47,2.38.25,1.3.51,2.6.77,3.89.24,1.19.47,2.38.74,3.56a16.57,16.57,0,0,0,.58,2.09,3.971,3.971,0,0,0,.81,1.39,8.477,8.477,0,0,0,1.04.86,4.038,4.038,0,0,0,2.58.6,6.729,6.729,0,0,0,1.35-.27,12.768,12.768,0,0,0,1.57-.67,11.013,11.013,0,0,0,2.02-1.43,17.763,17.763,0,0,0,1.6-1.53,32.673,32.673,0,0,0,3.05-3.97c1.31-1.89,2.42-3.92,3.54-5.93.36-.64.72-1.28,1.07-1.92.1.7.21,1.39.33,2.09a41.873,41.873,0,0,0,1.23,5.63,23.416,23.416,0,0,0,1.44,3.61,10.192,10.192,0,0,0,1.18,1.66,4.028,4.028,0,0,0,2.32,1.27,6.374,6.374,0,0,0,2.5-.01,7.665,7.665,0,0,0,2.01-.77,11.657,11.657,0,0,0,1.82-1.31,12.882,12.882,0,0,0,1.65-1.57,35.787,35.787,0,0,0,2.5-3.27c.86-1.19,1.59-2.47,2.34-3.73.67-1.15,1.36-2.29,2.03-3.44.45-.76.9-1.53,1.36-2.28.38-.63.77-1.25,1.15-1.88.2-.33.41-.67.61-1,.22.89.39,1.78.57,2.68.19.97.38,1.94.57,2.9.21,1.05.43,2.11.64,3.17.13.66.29,1.31.43,1.96.04.21.08.42.14.63a5.681,5.681,0,0,0,.53,1.27,8.359,8.359,0,0,0,.63.84,5.057,5.057,0,0,0,1.03.92,4.114,4.114,0,0,0,2.35.76,7.329,7.329,0,0,0,3.88-1.15A10.879,10.879,0,0,0,158.9,22a17.474,17.474,0,0,0,1.3-1.43,39.626,39.626,0,0,0,4.28-6.84c.21-.4.42-.81.63-1.22.07,1.25.14,2.5.22,3.75.08,1.28.16,2.56.28,3.84.09.88.23,1.76.39,2.63l.08.31c.14.33.28.67.42,1a5.967,5.967,0,0,0,.8,1.1,5.163,5.163,0,0,0,1.05.81,3.921,3.921,0,0,0,1.86.47,11.077,11.077,0,0,0,1.52-.19,5.57,5.57,0,0,0,1.68-.73,13.148,13.148,0,0,0,3.46-3.63,36.26,36.26,0,0,0,2.81-4.52c.72-1.3,1.37-2.64,2.05-3.96.18-.34.35-.69.53-1.04-.01.56-.03,1.12-.04,1.68-.03,1.19-.08,2.38-.13,3.57-.03.6-.06,1.19-.09,1.79-.01.25-.03.49-.05.74a7.36,7.36,0,0,0,.17,1.55,5.741,5.741,0,0,0,.5,1.32,3.622,3.622,0,0,0,.79,1.15c.06.05.12.1.17.15a3.341,3.341,0,0,0,1.5.87,6.9,6.9,0,0,0,1.43.24,6.645,6.645,0,0,0,1.53-.17,4.616,4.616,0,0,0,.9-.25,11.314,11.314,0,0,0,4.45-3.23,27.689,27.689,0,0,0,2.98-4.22c.52-.84.99-1.71,1.45-2.59,0,1.11-.01,2.22-.04,3.32-.02.72-.02,1.45-.04,2.17a8.752,8.752,0,0,0,.2,1.61c.03.11.06.21.1.32.16.39.32.78.49,1.16a6.639,6.639,0,0,0,.94,1.24,4.693,4.693,0,0,0,1.8,1.06,5.975,5.975,0,0,0,3.35.23,8.126,8.126,0,0,0,2.53-1.05,14.4,14.4,0,0,0,3.75-3.37c.6-.73,1.17-1.49,1.74-2.25,1-1.34,1.84-2.8,2.72-4.22.3-.48.59-.97.88-1.46.62-1.03,1.23-2.07,1.85-3.1.53-.89,1.04-1.81,1.57-2.71.16.57.33,1.13.46,1.71.22.95.41,1.91.62,2.86.26,1.18.53,2.35.78,3.53.12.54.3,1.08.45,1.62.17.59.33,1.18.52,1.77.78,2.39,1.9,4.77,4.09,6.16h0c-.13-.15-.26-.3-.39-.46a11.064,11.064,0,0,1-1.05-1.87,17.288,17.288,0,0,1-.97-4.15c-.28-2.22-.32-4.46-.39-6.7l-.06-1.95c-.03-1.42-.16-2.82-.3-4.24a8.131,8.131,0,0,0-.33-1.77,4.623,4.623,0,0,0-.49-1.03,3.671,3.671,0,0,0-1.01-1.03,3.394,3.394,0,0,0-1.98-.69ZM11.18,30.77Zm.11-.01h.12v.02A.352.352,0,0,1,11.29,30.76Zm.12.02h0Zm37.75.62Zm38.35-6.42s-.07-.06-.1-.09l.11.09h0Zm20.27.18Zm.02.01h0a2.442,2.442,0,0,1,.24.1,1.6,1.6,0,0,1-.23-.1Zm21.83-1.57h0l.15.02S129.68,23.61,129.63,23.6Zm89.4-17.41s.07.03.1.04h0Z" fill="#de632c"/>
    </g>
  </g>
</svg>
